<?xml version="1.0" standalone="no"?>
<!DOCTYPE svg PUBLIC "-//W3C//DTD SVG 20010904//EN"
 "http://www.w3.org/TR/2001/REC-SVG-20010904/DTD/svg10.dtd">
<svg version="1.0" xmlns="http://www.w3.org/2000/svg"
 width="1024.000000pt" height="644.000000pt" viewBox="0 0 1024.000000 644.000000"
 preserveAspectRatio="xMidYMid meet">

<g transform="translate(0.000000,644.000000) scale(0.100000,-0.100000)"
fill="#000000" stroke="none">
<path d="M0 3220 l0 -3220 5120 0 5120 0 0 3220 0 3220 -5120 0 -5120 0 0
-3220z m5395 1634 c66 -9 129 -17 140 -19 11 -2 40 -6 65 -10 25 -3 95 -17
155 -31 61 -14 122 -27 138 -31 15 -3 27 -11 27 -18 0 -8 8 -11 20 -8 30 8
167 -36 149 -48 -10 -7 -6 -8 12 -4 17 4 43 -1 70 -13 24 -11 70 -29 101 -40
31 -12 84 -33 118 -49 49 -21 58 -29 43 -34 -13 -6 -10 -8 13 -8 34 -1 160
-64 157 -79 -1 -5 10 -14 25 -21 25 -11 26 -10 8 4 -11 8 -17 15 -13 15 13 0
57 -24 57 -31 0 -4 10 -11 21 -14 34 -11 109 -61 102 -69 -3 -3 2 -6 13 -6 19
-1 19 -1 0 -15 -11 -8 -15 -15 -10 -15 6 0 15 5 21 11 13 13 58 -12 45 -26 -4
-5 -2 -6 3 -2 6 3 33 -10 60 -29 28 -19 61 -42 75 -52 14 -9 34 -25 45 -35 11
-11 47 -40 80 -65 33 -25 62 -47 64 -49 2 -2 1 -6 -2 -9 -4 -4 -13 -1 -22 6
-10 8 -15 9 -15 1 0 -12 1 -12 38 -16 13 -1 42 -21 65 -43 23 -22 57 -54 76
-72 28 -25 32 -33 20 -41 -8 -5 -11 -9 -7 -9 3 0 15 -3 25 -6 15 -5 15 -4 3 5
-8 6 -10 11 -5 11 6 0 26 -18 45 -40 19 -23 58 -65 85 -94 78 -83 100 -109
186 -222 62 -81 78 -110 74 -127 -4 -15 -3 -18 3 -9 7 10 18 1 46 -38 20 -28
44 -67 53 -86 9 -19 20 -34 25 -34 4 0 8 -4 8 -10 0 -5 14 -33 32 -62 60 -100
149 -289 142 -301 -4 -7 -3 -9 1 -5 12 12 67 -123 60 -149 -4 -16 -1 -21 9
-17 9 4 19 -9 30 -42 8 -25 13 -50 10 -55 -3 -5 0 -9 5 -9 6 0 11 -9 11 -19 0
-11 4 -22 9 -25 5 -3 12 -22 15 -41 l7 -35 298 0 299 0 17 53 c26 81 62 137
131 203 154 148 377 185 561 92 89 -44 190 -145 230 -228 38 -80 55 -152 56
-232 0 -64 -23 -169 -36 -161 -6 3 -7 1 -3 -6 22 -35 -125 -236 -163 -223 -8
3 -11 0 -7 -6 7 -12 -99 -77 -151 -92 -58 -16 -208 -25 -200 -13 5 7 0 9 -13
6 -46 -12 -209 58 -202 87 2 7 -3 10 -12 7 -40 -16 -158 134 -197 250 -12 36
-25 60 -28 54 -5 -8 -111 -11 -376 -9 -318 3 -368 5 -371 18 -6 40 -47 176
-56 187 -6 7 -8 20 -4 28 3 8 0 15 -5 15 -7 0 -9 11 -7 25 3 13 2 22 -3 20 -4
-3 -11 5 -14 17 -4 13 -36 90 -71 171 -36 82 -61 153 -58 159 4 6 2 8 -4 4 -6
-4 -21 15 -37 46 -15 29 -32 56 -38 60 -6 4 -11 26 -11 50 1 26 -1 36 -6 24
-5 -16 -10 -13 -28 23 -12 23 -20 46 -17 52 3 5 0 7 -7 4 -8 -3 -23 12 -38 36
-40 67 -43 71 -89 139 -25 36 -50 70 -55 76 -6 6 -27 30 -46 54 -19 24 -52 62
-72 85 -42 46 -44 52 -25 58 6 2 4 3 -5 2 -23 -4 -44 21 -26 29 9 4 8 5 -2 3
-9 -1 -45 27 -80 63 -36 36 -103 99 -148 140 -67 59 -80 75 -66 80 16 6 16 7
1 13 -8 3 -17 1 -20 -6 -2 -7 -26 7 -57 33 -29 25 -64 52 -76 60 -13 8 -62 44
-110 79 -48 35 -105 72 -126 83 -24 13 -37 26 -34 34 3 7 0 16 -6 20 -7 4 -8
3 -4 -4 12 -20 -10 -14 -71 20 -86 46 -97 55 -81 62 7 3 4 4 -8 1 -12 -3 -53
11 -101 35 -44 22 -93 45 -109 51 -27 10 -28 12 -9 20 16 7 14 8 -8 4 -16 -3
-45 2 -70 13 -118 52 -513 162 -581 162 -11 0 -28 7 -38 17 -10 9 -18 12 -18
7 0 -5 -20 -8 -45 -6 -25 2 -43 7 -41 11 2 3 -24 6 -57 7 -34 0 -170 2 -302 3
-207 3 -408 -8 -453 -24 -7 -3 -56 -11 -109 -20 -53 -9 -135 -27 -182 -41 -47
-13 -115 -33 -151 -43 -74 -22 -122 -38 -165 -56 -16 -7 -61 -25 -100 -40 -84
-32 -187 -81 -235 -110 -42 -27 -85 -42 -76 -27 4 6 -2 8 -16 4 -20 -5 -20 -6
-3 -12 15 -5 12 -10 -19 -28 -21 -12 -41 -20 -46 -17 -5 3 -15 -3 -22 -12 -13
-17 -107 -84 -158 -111 -13 -7 -27 -16 -30 -20 -17 -23 -70 -49 -93 -47 -15 2
-25 -1 -22 -5 3 -5 13 -6 23 -3 11 3 7 -4 -10 -21 -15 -14 -32 -26 -38 -26 -5
0 -10 -5 -10 -11 0 -6 -7 -8 -16 -5 -8 3 -13 2 -10 -3 9 -14 -20 -32 -40 -25
-14 4 -15 3 -6 -4 11 -7 7 -16 -20 -41 -33 -31 -56 -41 -42 -19 4 7 3 8 -5 4
-6 -4 -9 -12 -5 -17 9 -15 -39 -50 -49 -36 -6 8 -7 6 -4 -4 7 -21 -151 -184
-173 -180 -8 2 -12 0 -8 -4 7 -8 -10 -33 -112 -157 -30 -37 -66 -83 -80 -103
-14 -20 -30 -42 -36 -48 -21 -24 -180 -273 -203 -320 -8 -15 -17 -23 -21 -17
-3 5 -6 -5 -7 -23 -1 -43 -62 -154 -75 -135 -6 9 -7 6 -3 -9 4 -14 -5 -45 -23
-85 -54 -116 -141 -367 -159 -460 l-5 -28 -354 0 c-330 0 -354 1 -355 18 -1
15 -2 15 -6 -1 -3 -14 -12 -18 -28 -15 -21 4 -26 -1 -40 -44 -8 -27 -29 -70
-45 -97 -17 -27 -30 -50 -30 -53 0 -7 -84 -90 -107 -105 -48 -32 -131 -74
-163 -83 -67 -18 -176 -23 -231 -11 -73 17 -124 41 -135 65 -5 11 -16 21 -24
23 -10 3 -9 1 3 -7 9 -6 17 -16 17 -21 0 -18 -60 24 -123 87 -162 160 -194
405 -79 609 51 90 192 216 205 183 4 -9 6 -8 6 3 2 43 196 83 301 63 22 -5 28
-9 18 -15 -8 -6 -1 -7 18 -3 24 4 49 -2 97 -25 35 -17 70 -38 77 -46 7 -8 19
-15 26 -15 13 0 18 -11 15 -36 -1 -6 6 -17 14 -24 9 -7 15 -8 15 -2 0 6 -6 12
-12 15 -7 2 -10 7 -7 11 4 4 23 -10 43 -31 29 -29 36 -43 31 -63 -4 -17 -3
-21 4 -11 7 11 11 9 21 -8 6 -13 9 -29 6 -37 -3 -8 -1 -24 5 -36 9 -21 9 -21
4 5 -3 15 -3 27 -1 27 5 0 29 -50 39 -82 5 -15 33 -17 306 -18 338 -1 312 -7
326 80 4 25 11 50 16 56 5 6 16 31 24 55 36 104 68 169 84 169 12 0 13 2 3 9
-10 6 -10 13 2 37 8 16 37 76 66 134 83 169 111 214 122 198 7 -9 8 -7 4 8 -4
14 8 42 39 89 25 38 45 75 45 82 0 7 4 13 9 13 4 0 21 19 36 42 15 23 39 54
52 67 12 14 23 31 23 38 0 6 3 13 8 15 4 2 29 30 57 63 27 33 68 81 90 107 22
25 45 52 51 60 6 7 22 23 35 34 13 12 50 48 81 80 31 33 70 69 85 81 15 12 50
42 77 68 52 50 331 264 356 273 8 3 23 12 32 19 9 8 22 12 29 7 7 -4 10 -3 6
4 -4 5 14 22 40 38 27 15 50 30 53 33 3 3 37 22 75 41 39 19 72 38 73 43 2 4
7 7 12 7 4 0 59 24 121 53 63 30 130 60 149 67 19 7 49 19 65 26 166 72 539
162 776 188 179 19 536 20 684 0z m-25 -728 c84 -13 221 -40 290 -57 120 -31
269 -82 265 -90 -3 -4 3 -5 13 -2 10 2 52 -11 93 -30 41 -19 88 -40 106 -48
17 -7 29 -17 26 -23 -3 -5 -1 -6 5 -2 11 7 18 4 85 -35 29 -16 35 -24 25 -31
-8 -5 -4 -7 13 -3 17 4 32 1 42 -9 8 -9 18 -16 22 -16 11 0 90 -55 103 -73 7
-9 18 -15 23 -12 5 4 20 -5 34 -19 14 -15 30 -26 34 -26 5 0 23 -13 41 -30 18
-16 35 -30 39 -30 4 0 40 -30 81 -67 159 -145 274 -269 264 -285 -4 -6 -3 -8
3 -5 19 12 155 -172 243 -328 11 -19 29 -51 40 -71 11 -19 17 -41 14 -47 -4
-7 -3 -9 1 -4 11 9 96 -163 90 -181 -3 -7 -1 -11 3 -8 13 8 89 -209 128 -369
41 -163 74 -377 74 -477 0 -36 5 -53 20 -65 11 -10 20 -21 20 -26 0 -5 -7 -4
-15 3 -9 7 -18 10 -22 6 -10 -9 2 -17 28 -18 28 -2 91 -56 82 -71 -3 -6 -2 -7
4 -4 15 9 84 -68 77 -87 -3 -9 -1 -16 6 -16 6 0 8 4 5 10 -3 5 -2 10 2 10 15
0 153 -140 150 -153 -1 -7 3 -11 10 -10 6 1 45 -29 86 -67 l75 -70 367 0 c358
0 367 0 372 20 3 11 10 20 15 20 5 0 7 4 3 9 -13 22 78 166 97 154 7 -3 8 -1
4 5 -4 7 -2 12 4 12 6 0 8 5 5 10 -3 6 2 10 11 10 10 0 14 3 11 6 -17 18 108
91 202 118 155 46 370 -8 468 -117 17 -19 29 -38 25 -42 -3 -3 1 -3 10 0 11 4
18 0 22 -13 4 -10 14 -27 24 -38 35 -38 76 -154 86 -248 7 -56 -10 -165 -30
-205 -8 -14 -14 -30 -14 -35 0 -14 -71 -118 -103 -150 -24 -24 -31 -27 -39
-15 -8 11 -9 10 -4 -3 4 -13 -9 -27 -49 -53 -127 -81 -271 -100 -417 -56 -43
13 -78 28 -78 32 0 5 -5 9 -12 9 -21 0 -79 52 -74 66 3 8 1 14 -4 14 -6 0 -10
-5 -10 -12 0 -6 -10 -3 -21 8 -39 35 -101 138 -124 204 l-22 65 -409 3 -409 3
-47 46 c-26 26 -45 50 -42 55 3 5 1 7 -5 6 -14 -4 -162 142 -156 153 3 4 0 11
-6 15 -8 4 -9 3 -5 -4 4 -7 5 -12 2 -12 -12 0 -331 322 -328 331 1 6 -1 8 -6
5 -5 -3 -22 8 -38 25 -24 25 -26 31 -14 39 8 5 10 10 4 10 -7 0 -13 39 -17
103 -7 114 -42 359 -57 397 -5 14 -12 42 -15 64 -3 21 -8 42 -11 47 -3 5 -164
9 -359 9 l-353 0 -7 -30 c-9 -40 -53 -130 -64 -130 -5 0 -7 -9 -4 -20 3 -11 0
-20 -6 -20 -6 0 -11 -6 -11 -12 0 -13 -109 -281 -161 -396 -16 -35 -29 -70
-29 -78 0 -34 -17 -8 -49 74 -19 48 -42 105 -52 127 -23 55 -45 112 -61 160
-7 22 -15 42 -19 45 -3 3 -20 43 -38 90 -19 47 -42 103 -51 125 -30 68 -60
157 -55 166 3 4 -1 11 -9 16 -7 4 -21 28 -29 53 -45 128 -97 225 -97 178 0
-12 -36 -107 -66 -173 -8 -16 -31 -75 -53 -130 -21 -55 -47 -118 -57 -140 -20
-46 -21 -49 -30 -90 -4 -16 -10 -32 -14 -35 -4 -3 -20 -36 -35 -75 -14 -38
-42 -107 -61 -152 -19 -45 -34 -86 -34 -91 0 -5 -14 -28 -31 -52 -17 -23 -26
-39 -20 -36 14 9 13 1 -3 -44 l-13 -35 -16 32 c-9 17 -24 52 -32 78 -9 25 -29
74 -44 108 -28 60 -71 172 -71 183 0 3 5 2 12 -2 7 -4 8 -3 4 5 -4 6 -11 9
-15 7 -4 -3 -22 34 -41 82 -19 48 -44 111 -57 139 -15 33 -21 63 -18 80 4 19
3 22 -3 10 -6 -15 -12 -8 -29 35 -12 29 -25 64 -28 78 -4 14 -11 30 -15 35 -5
6 -25 52 -45 102 -20 51 -41 91 -45 88 -4 -3 -18 -30 -31 -60 -16 -38 -25 -51
-32 -43 -5 8 -6 5 -2 -9 3 -13 -2 -40 -15 -67 -11 -25 -20 -49 -20 -53 0 -4
-25 -69 -56 -143 -30 -74 -61 -151 -68 -170 -39 -106 -82 -205 -88 -208 -5 -2
-6 -8 -3 -13 3 -4 -3 -25 -13 -46 -11 -21 -30 -68 -43 -105 -13 -36 -26 -65
-30 -62 -4 2 -9 -15 -13 -38 -4 -23 -10 -37 -15 -32 -17 19 -114 270 -113 294
0 14 -2 19 -5 11 -4 -9 -10 -1 -18 20 -22 60 -76 192 -101 247 -13 29 -24 58
-24 65 0 7 -4 17 -8 23 -18 19 -42 102 -36 120 4 14 3 15 -4 6 -7 -10 -19 11
-45 75 -25 62 -32 90 -23 95 7 5 5 8 -7 8 -12 0 -21 13 -29 45 -7 24 -17 47
-24 49 -12 5 -16 -2 -52 -99 -10 -28 -26 -66 -35 -85 -8 -19 -29 -66 -46 -105
l-30 -70 -530 -3 -530 -2 -10 -38 c-6 -21 -14 -53 -18 -72 -5 -29 -7 -31 -15
-15 -6 15 -7 12 -3 -10 3 -16 -2 -73 -10 -125 -18 -109 -20 -125 -30 -278 l-7
-114 -111 -109 c-62 -62 -116 -108 -123 -105 -7 3 -11 0 -8 -7 6 -18 -142
-161 -157 -151 -8 4 -9 3 -5 -5 12 -19 -137 -163 -161 -155 -15 5 -15 4 -3 -5
13 -9 7 -18 -35 -56 l-50 -45 -190 -1 c-104 -1 -290 -1 -411 1 l-222 2 -17
-54 c-10 -29 -31 -78 -46 -108 -48 -91 -196 -217 -238 -202 -8 2 -11 0 -8 -5
14 -23 -142 -53 -218 -43 -28 4 -41 8 -30 9 11 2 15 5 8 7 -7 3 -20 1 -29 -4
-44 -25 -250 77 -237 117 4 13 3 13 -5 2 -8 -12 -15 -9 -36 15 -14 16 -26 35
-26 41 0 7 -5 12 -11 10 -17 -3 -80 115 -73 137 4 11 2 16 -4 12 -15 -9 -23
21 -29 111 -9 130 17 230 86 338 24 36 87 100 100 100 3 0 15 10 28 23 32 32
125 74 134 60 4 -6 10 -4 17 8 8 15 23 19 76 19 36 0 66 2 66 5 0 3 20 4 45 2
25 -2 43 -7 40 -12 -2 -4 6 -5 19 -3 13 3 27 0 30 -6 4 -6 15 -11 26 -11 37 0
136 -63 191 -120 54 -57 125 -171 113 -183 -3 -3 1 -14 8 -26 13 -21 18 -21
384 -21 l371 0 72 70 c39 39 76 68 82 65 5 -4 8 -2 7 3 -3 11 76 95 259 274
l109 107 3 88 c1 48 5 91 7 95 3 4 7 31 10 60 4 48 48 288 60 331 3 9 12 17
20 17 8 0 14 4 14 10 0 5 -7 7 -16 3 -13 -5 -14 -2 -6 13 6 10 24 62 42 115
17 54 46 129 65 168 19 39 35 75 35 79 0 8 8 24 76 151 26 47 55 98 65 113 11
14 19 29 19 32 0 4 17 29 37 56 26 35 40 46 46 37 5 -7 6 -3 2 12 -5 16 -4 21
4 17 6 -4 11 -1 11 7 0 8 16 35 35 60 19 25 35 48 35 52 0 3 76 82 170 176
145 145 173 169 192 164 16 -4 19 -3 10 3 -20 14 68 85 94 76 14 -4 15 -3 6 4
-11 7 -7 14 16 31 17 11 35 21 40 21 5 0 13 7 16 16 4 12 14 15 34 10 15 -3
21 -3 14 0 -10 5 -9 10 4 25 9 10 23 19 30 19 7 0 19 6 26 13 12 12 25 20 111
64 17 9 34 19 37 23 4 6 66 30 77 30 2 0 1 -4 -2 -10 -3 -6 1 -7 9 -4 9 3 14
9 11 14 -2 4 12 15 33 25 20 10 45 22 55 27 10 5 23 6 29 2 7 -5 8 -2 3 6 -6
10 -4 12 8 7 10 -3 17 -3 17 1 0 4 30 18 68 30 37 13 76 28 87 33 52 23 310
76 460 95 106 12 508 13 595 0z"/>
<path d="M5058 4853 c12 -2 32 -2 45 0 12 2 2 4 -23 4 -25 0 -35 -2 -22 -4z"/>
<path d="M5208 4853 c6 -2 18 -2 25 0 6 3 1 5 -13 5 -14 0 -19 -2 -12 -5z"/>
<path d="M4465 4800 c-25 -11 1 -11 35 0 20 6 21 8 5 8 -11 0 -29 -3 -40 -8z"/>
<path d="M5600 4806 c0 -2 9 -6 20 -9 11 -3 20 -1 20 4 0 5 -9 9 -20 9 -11 0
-20 -2 -20 -4z"/>
<path d="M4408 4793 c7 -3 16 -2 19 1 4 3 -2 6 -13 5 -11 0 -14 -3 -6 -6z"/>
<path d="M4353 4773 c9 -2 25 -2 35 0 9 3 1 5 -18 5 -19 0 -27 -2 -17 -5z"/>
<path d="M5743 4773 c9 -2 23 -2 30 0 6 3 -1 5 -18 5 -16 0 -22 -2 -12 -5z"/>
<path d="M5958 4713 c7 -3 16 -2 19 1 4 3 -2 6 -13 5 -11 0 -14 -3 -6 -6z"/>
<path d="M4068 4693 c7 -3 16 -2 19 1 4 3 -2 6 -13 5 -11 0 -14 -3 -6 -6z"/>
<path d="M4813 4663 c9 -2 23 -2 30 0 6 3 -1 5 -18 5 -16 0 -22 -2 -12 -5z"/>
<path d="M4978 4663 c12 -2 32 -2 45 0 12 2 2 4 -23 4 -25 0 -35 -2 -22 -4z"/>
<path d="M5153 4663 c9 -2 25 -2 35 0 9 3 1 5 -18 5 -19 0 -27 -2 -17 -5z"/>
<path d="M5368 4643 c7 -3 16 -2 19 1 4 3 -2 6 -13 5 -11 0 -14 -3 -6 -6z"/>
<path d="M3835 4610 c-3 -6 1 -7 9 -4 18 7 21 14 7 14 -6 0 -13 -4 -16 -10z"/>
<path d="M6317 4599 c7 -7 15 -10 18 -7 3 3 -2 9 -12 12 -14 6 -15 5 -6 -5z"/>
<path d="M4385 4590 c-25 -11 1 -11 35 0 20 6 21 8 5 8 -11 0 -29 -3 -40 -8z"/>
<path d="M5738 4583 c6 -2 18 -2 25 0 6 3 1 5 -13 5 -14 0 -19 -2 -12 -5z"/>
<path d="M4255 4560 l-20 -9 20 0 c11 0 27 4 35 9 13 9 13 10 0 9 -8 0 -24 -4
-35 -9z"/>
<path d="M3728 4553 c7 -3 16 -2 19 1 4 3 -2 6 -13 5 -11 0 -14 -3 -6 -6z"/>
<path d="M5853 4553 c9 -2 23 -2 30 0 6 3 -1 5 -18 5 -16 0 -22 -2 -12 -5z"/>
<path d="M6478 4518 c5 -5 16 -8 23 -6 8 3 3 7 -10 11 -17 4 -21 3 -13 -5z"/>
<path d="M4066 4501 c-15 -6 -16 -9 -5 -13 8 -3 20 1 27 8 14 15 7 17 -22 5z"/>
<path d="M6060 4490 c20 -13 33 -13 25 0 -3 6 -14 10 -23 10 -15 0 -15 -2 -2
-10z"/>
<path d="M3568 4473 c7 -3 16 -2 19 1 4 3 -2 6 -13 5 -11 0 -14 -3 -6 -6z"/>
<path d="M6720 4381 c0 -5 7 -11 15 -15 8 -3 15 -1 15 3 0 5 -7 11 -15 15 -8
3 -15 1 -15 -3z"/>
<path d="M6380 4350 c8 -5 20 -10 25 -10 6 0 3 5 -5 10 -8 5 -19 10 -25 10 -5
0 -3 -5 5 -10z"/>
<path d="M6448 4343 c7 -3 16 -2 19 1 4 3 -2 6 -13 5 -11 0 -14 -3 -6 -6z"/>
<path d="M3670 4330 c-9 -6 -10 -10 -3 -10 6 0 15 5 18 10 8 12 4 12 -15 0z"/>
<path d="M3180 4240 c-8 -5 -12 -11 -9 -14 2 -3 11 -1 19 4 8 5 12 11 9 14 -2
3 -11 1 -19 -4z"/>
<path d="M3389 4163 c-13 -17 -13 -17 6 -3 11 8 22 16 24 17 2 2 0 3 -6 3 -6
0 -17 -8 -24 -17z"/>
<path d="M3070 4155 c-20 -24 -6 -28 15 -5 10 11 13 20 8 20 -6 0 -16 -7 -23
-15z"/>
<path d="M7040 4160 c0 -5 5 -10 11 -10 5 0 7 5 4 10 -3 6 -8 10 -11 10 -2 0
-4 -4 -4 -10z"/>
<path d="M6755 4150 c3 -5 8 -10 11 -10 2 0 4 5 4 10 0 6 -5 10 -11 10 -5 0
-7 -4 -4 -10z"/>
<path d="M2875 3989 c-4 -6 -4 -13 -1 -16 3 -4 6 -1 6 5 0 6 8 13 18 15 15 4
15 5 0 6 -9 0 -20 -4 -23 -10z"/>
<path d="M7310 3910 c0 -5 5 -10 10 -10 6 0 10 5 10 10 0 6 -4 10 -10 10 -5 0
-10 -4 -10 -10z"/>
<path d="M7090 3876 c0 -2 7 -7 16 -10 8 -3 12 -2 9 4 -6 10 -25 14 -25 6z"/>
<path d="M7385 3840 c-3 -5 -1 -10 4 -10 6 0 11 5 11 10 0 6 -2 10 -4 10 -3 0
-8 -4 -11 -10z"/>
<path d="M2905 3780 c-3 -5 -1 -10 4 -10 6 0 11 5 11 10 0 6 -2 10 -4 10 -3 0
-8 -4 -11 -10z"/>
<path d="M7475 3750 c3 -5 8 -10 11 -10 2 0 4 5 4 10 0 6 -5 10 -11 10 -5 0
-7 -4 -4 -10z"/>
<path d="M2605 3719 c-4 -6 -5 -12 -2 -15 2 -3 7 2 10 11 7 17 1 20 -8 4z"/>
<path d="M2825 3700 c-3 -5 -1 -10 4 -10 6 0 11 5 11 10 0 6 -2 10 -4 10 -3 0
-8 -4 -11 -10z"/>
<path d="M7391 3574 c0 -11 3 -14 6 -6 3 7 2 16 -1 19 -3 4 -6 -2 -5 -13z"/>
<path d="M2677 3533 c-4 -3 -7 -11 -7 -17 0 -6 5 -5 12 2 6 6 9 14 7 17 -3 3
-9 2 -12 -2z"/>
<path d="M2435 3510 c-3 -5 -1 -10 4 -10 6 0 11 5 11 10 0 6 -2 10 -4 10 -3 0
-8 -4 -11 -10z"/>
<path d="M7725 3440 c3 -5 8 -10 11 -10 2 0 4 5 4 10 0 6 -5 10 -11 10 -5 0
-7 -4 -4 -10z"/>
<path d="M7570 3360 c0 -5 5 -10 10 -10 6 0 10 5 10 10 0 6 -4 10 -10 10 -5 0
-10 -4 -10 -10z"/>
<path d="M2490 3290 c0 -5 5 -10 10 -10 6 0 10 5 10 10 0 6 -4 10 -10 10 -5 0
-10 -4 -10 -10z"/>
<path d="M7631 3284 c0 -11 3 -14 6 -6 3 7 2 16 -1 19 -3 4 -6 -2 -5 -13z"/>
<path d="M7662 3220 c7 -10 14 -18 15 -16 6 6 -9 36 -18 36 -5 0 -4 -9 3 -20z"/>
<path d="M7876 3207 c3 -10 9 -15 12 -12 3 3 0 11 -7 18 -10 9 -11 8 -5 -6z"/>
<path d="M7947 3090 c3 -11 9 -20 15 -20 5 0 4 9 -2 20 -6 11 -12 20 -14 20
-2 0 -2 -9 1 -20z"/>
<path d="M7970 3040 c0 -5 5 -10 11 -10 5 0 7 5 4 10 -3 6 -8 10 -11 10 -2 0
-4 -4 -4 -10z"/>
<path d="M2126 3023 c-28 -80 -28 -99 1 -35 9 20 19 40 21 45 2 4 -1 7 -6 7
-5 0 -12 -8 -16 -17z"/>
<path d="M2330 3025 c0 -8 2 -15 4 -15 2 0 6 7 10 15 3 8 1 15 -4 15 -6 0 -10
-7 -10 -15z"/>
<path d="M2108 2923 c7 -3 16 -2 19 1 4 3 -2 6 -13 5 -11 0 -14 -3 -6 -6z"/>
<path d="M2256 2874 c-9 -24 -2 -26 12 -4 7 11 8 20 3 20 -5 0 -12 -7 -15 -16z"/>
<path d="M768 2853 c6 -2 18 -2 25 0 6 3 1 5 -13 5 -14 0 -19 -2 -12 -5z"/>
<path d="M9277 2853 c-3 -5 17 -8 44 -8 27 0 49 3 49 8 0 4 -20 7 -44 7 -25 0
-47 -3 -49 -7z"/>
<path d="M703 2843 c9 -2 25 -2 35 0 9 3 1 5 -18 5 -19 0 -27 -2 -17 -5z"/>
<path d="M2020 2774 c0 -8 5 -12 10 -9 6 3 10 10 10 16 0 5 -4 9 -10 9 -5 0
-10 -7 -10 -16z"/>
<path d="M7900 2775 c0 -5 5 -17 10 -25 5 -8 10 -10 10 -5 0 6 -5 17 -10 25
-5 8 -10 11 -10 5z"/>
<path d="M9040 2770 c0 -5 7 -7 15 -4 8 4 15 8 15 10 0 2 -7 4 -15 4 -8 0 -15
-4 -15 -10z"/>
<path d="M9578 2773 c7 -3 16 -2 19 1 4 3 -2 6 -13 5 -11 0 -14 -3 -6 -6z"/>
<path d="M1982 2698 c-10 -30 -10 -31 3 -14 13 17 21 46 12 46 -1 0 -8 -15
-15 -32z"/>
<path d="M701 2661 c-7 -5 -11 -13 -7 -19 3 -5 -5 -13 -18 -16 -36 -9 -122
-96 -145 -146 -14 -31 -21 -66 -21 -116 0 -134 79 -242 204 -278 119 -35 254
18 321 124 51 81 51 219 -1 301 -27 43 -126 126 -158 132 -12 3 -4 3 18 2 35
-3 36 -2 18 10 -14 10 -29 12 -53 6 -51 -13 -153 -21 -143 -11 5 4 20 10 34
13 23 4 22 4 -5 5 -16 1 -36 -2 -44 -7z"/>
<path d="M9430 2650 c0 -5 5 -10 10 -10 6 0 10 5 10 10 0 6 -4 10 -10 10 -5 0
-10 -4 -10 -10z"/>
<path d="M647 2639 c7 -7 15 -10 18 -7 3 3 -2 9 -12 12 -14 6 -15 5 -6 -5z"/>
<path d="M7991 2634 c0 -11 3 -14 6 -6 3 7 2 16 -1 19 -3 4 -6 -2 -5 -13z"/>
<path d="M9212 2639 c6 -4 -5 -16 -28 -27 -52 -27 -89 -64 -117 -115 -18 -35
-22 -58 -22 -137 0 -87 2 -99 29 -145 17 -27 40 -58 53 -68 13 -10 21 -23 18
-28 -4 -5 3 -9 15 -9 12 0 35 -7 53 -16 43 -23 141 -26 197 -7 59 20 123 73
156 129 47 80 43 239 -7 302 -11 14 -17 33 -14 43 3 9 0 21 -6 25 -9 5 -10 2
-6 -9 9 -23 -6 -21 -27 2 -17 18 -17 20 1 24 12 4 10 5 -7 4 -14 0 -41 8 -60
18 -28 16 -56 20 -137 20 -56 0 -97 -3 -91 -6z"/>
<path d="M9155 2630 c-3 -5 -2 -10 4 -10 5 0 13 5 16 10 3 6 2 10 -4 10 -5 0
-13 -4 -16 -10z"/>
<path d="M377 2623 c-4 -3 -7 -11 -7 -17 0 -6 5 -5 12 2 6 6 9 14 7 17 -3 3
-9 2 -12 -2z"/>
<path d="M9065 2559 c-11 -17 1 -21 15 -4 8 9 8 15 2 15 -6 0 -14 -5 -17 -11z"/>
<path d="M2106 2525 c-3 -8 -1 -15 4 -15 6 0 10 7 10 15 0 8 -2 15 -4 15 -2 0
-6 -7 -10 -15z"/>
<path d="M8190 2516 c0 -9 5 -16 10 -16 6 0 10 4 10 9 0 6 -4 13 -10 16 -5 3
-10 -1 -10 -9z"/>
<path d="M8850 2490 c0 -5 5 -10 10 -10 6 0 10 5 10 10 0 6 -4 10 -10 10 -5 0
-10 -4 -10 -10z"/>
<path d="M9791 2454 c0 -11 3 -14 6 -6 3 7 2 16 -1 19 -3 4 -6 -2 -5 -13z"/>
<path d="M9802 2328 c-1 -20 -5 -45 -8 -55 -5 -17 -5 -17 6 0 6 9 9 34 7 55
l-4 37 -1 -37z"/>
<path d="M8071 2314 c0 -11 3 -14 6 -6 3 7 2 16 -1 19 -3 4 -6 -2 -5 -13z"/>
<path d="M492 2300 c0 -14 2 -19 5 -12 2 6 2 18 0 25 -3 6 -5 1 -5 -13z"/>
<path d="M1478 2263 c67 -2 177 -2 245 0 67 1 12 3 -123 3 -135 0 -190 -2
-122 -3z"/>
<path d="M1938 2263 c12 -2 32 -2 45 0 12 2 2 4 -23 4 -25 0 -35 -2 -22 -4z"/>
<path d="M8203 2263 c20 -2 54 -2 75 0 20 2 3 4 -38 4 -41 0 -58 -2 -37 -4z"/>
<path d="M8438 2263 c67 -2 177 -2 245 0 67 1 12 3 -123 3 -135 0 -190 -2
-122 -3z"/>
<path d="M8860 2220 c0 -5 5 -10 11 -10 5 0 7 5 4 10 -3 6 -8 10 -11 10 -2 0
-4 -4 -4 -10z"/>
<path d="M9050 2205 c0 -8 4 -15 10 -15 5 0 7 7 4 15 -4 8 -8 15 -10 15 -2 0
-4 -7 -4 -15z"/>
<path d="M1235 2180 c-4 -12 -5 -24 -2 -27 3 -2 8 5 12 17 4 12 5 24 2 27 -3
2 -8 -5 -12 -17z"/>
<path d="M345 2170 c3 -5 8 -10 11 -10 2 0 4 5 4 10 0 6 -5 10 -11 10 -5 0 -7
-4 -4 -10z"/>
<path d="M1019 2153 c-13 -16 -12 -17 4 -4 9 7 17 15 17 17 0 8 -8 3 -21 -13z"/>
<path d="M9050 2150 c0 -5 5 -10 10 -10 6 0 10 5 10 10 0 6 -4 10 -10 10 -5 0
-10 -4 -10 -10z"/>
<path d="M9535 2150 c-3 -5 -1 -10 4 -10 6 0 11 5 11 10 0 6 -2 10 -4 10 -3 0
-8 -4 -11 -10z"/>
<path d="M710 2060 c8 -5 24 -10 34 -10 26 0 18 6 -19 14 -22 5 -26 4 -15 -4z"/>
<path d="M9001 2037 c2 -1 13 -9 24 -17 19 -14 19 -14 6 3 -7 9 -18 17 -24 17
-6 0 -8 -1 -6 -3z"/>
<path d="M450 2016 c0 -2 8 -10 18 -17 15 -13 16 -12 3 4 -13 16 -21 21 -21
13z"/>
<path d="M1045 1950 c-3 -6 1 -7 9 -4 18 7 21 14 7 14 -6 0 -13 -4 -16 -10z"/>
<path d="M9536 1935 c-11 -8 -18 -17 -15 -19 2 -2 15 4 28 15 27 22 15 26 -13
4z"/>
<path d="M985 1920 c-3 -6 1 -7 9 -4 18 7 21 14 7 14 -6 0 -13 -4 -16 -10z"/>
<path d="M4618 4083 c7 -3 16 -2 19 1 4 3 -2 6 -13 5 -11 0 -14 -3 -6 -6z"/>
<path d="M4488 4063 c7 -3 16 -2 19 1 4 3 -2 6 -13 5 -11 0 -14 -3 -6 -6z"/>
<path d="M5613 4053 c9 -2 23 -2 30 0 6 3 -1 5 -18 5 -16 0 -22 -2 -12 -5z"/>
<path d="M4280 4000 c-13 -8 -13 -10 2 -10 9 0 20 5 23 10 8 13 -5 13 -25 0z"/>
<path d="M5338 3943 c6 -2 18 -2 25 0 6 3 1 5 -13 5 -14 0 -19 -2 -12 -5z"/>
<path d="M4808 3923 c6 -2 18 -2 25 0 6 3 1 5 -13 5 -14 0 -19 -2 -12 -5z"/>
<path d="M4040 3910 c0 -5 5 -10 11 -10 5 0 7 5 4 10 -3 6 -8 10 -11 10 -2 0
-4 -4 -4 -10z"/>
<path d="M4880 3909 c-47 -4 -107 -9 -135 -12 -82 -7 -282 -56 -405 -99 -63
-21 -125 -39 -137 -40 -13 0 -20 -4 -17 -9 3 -5 -2 -9 -10 -9 -9 0 -16 -4 -16
-10 0 -5 -7 -10 -15 -10 -20 0 -154 -60 -187 -83 -15 -11 -31 -16 -39 -12 -7
5 -10 4 -6 -1 3 -6 -33 -34 -79 -64 -47 -30 -91 -60 -97 -65 -33 -28 -68 -44
-83 -38 -13 5 -16 3 -11 -10 4 -11 -11 -30 -51 -63 -77 -65 -237 -226 -292
-294 -25 -30 -47 -57 -51 -60 -3 -3 -8 -13 -12 -23 -5 -13 -13 -17 -29 -12
-18 5 -20 4 -8 -4 12 -9 13 -13 2 -20 -8 -4 -13 -11 -13 -15 1 -14 -12 -36
-19 -31 -4 3 -10 -5 -14 -18 -3 -12 -21 -46 -39 -75 -19 -28 -45 -73 -58 -100
-13 -26 -26 -49 -29 -52 -9 -9 -58 -114 -66 -140 -3 -14 -11 -28 -17 -31 -5
-4 -7 -12 -3 -18 5 -7 133 -10 422 -8 l416 2 17 50 c10 28 38 94 62 148 33 76
45 94 51 80 6 -12 7 -9 3 10 -4 19 12 69 56 175 68 165 90 216 107 252 12 24
12 24 8 -7 -3 -18 -1 -35 4 -38 6 -4 7 2 3 12 -12 34 13 -1 27 -37 7 -19 22
-55 32 -79 12 -27 17 -53 13 -70 -3 -16 -2 -21 3 -13 10 14 14 6 57 -104 14
-38 30 -78 35 -89 5 -11 23 -56 40 -100 17 -44 38 -95 46 -113 20 -46 84 -211
84 -216 0 -3 14 -34 30 -70 17 -37 28 -71 24 -78 -4 -6 -3 -8 4 -4 6 3 12 -3
14 -16 5 -37 25 -31 41 14 23 66 87 228 107 273 9 22 25 61 35 87 10 26 21 45
25 43 5 -3 6 4 3 15 -4 16 -2 19 13 14 15 -5 16 -4 4 4 -11 9 -12 15 -2 34 6
13 21 48 33 78 34 89 51 120 61 114 6 -4 8 1 4 13 -7 23 47 175 69 193 8 7 13
16 10 20 -9 15 17 71 31 66 8 -3 14 -1 14 3 0 5 -4 11 -10 13 -12 4 -1 48 12
48 6 0 8 -9 5 -20 -3 -11 -1 -18 3 -15 5 3 16 -19 25 -47 10 -29 22 -59 27
-65 6 -7 7 -25 4 -40 -4 -18 -3 -23 2 -15 12 18 36 -40 28 -66 -4 -11 -2 -23
3 -27 7 -4 8 1 4 12 -4 12 -3 15 4 8 20 -20 86 -191 87 -222 0 -19 3 -28 7
-21 6 9 10 6 15 -7 4 -11 31 -80 60 -152 30 -73 54 -135 54 -139 0 -3 -7 -4
-15 0 -8 3 -15 1 -15 -4 0 -6 9 -10 19 -10 23 0 33 -22 26 -58 -4 -22 -4 -23
4 -7 8 19 9 18 20 -8 6 -16 11 -31 11 -34 0 -3 9 -24 19 -47 11 -23 22 -49 25
-58 8 -26 25 -22 32 7 3 14 10 23 14 20 5 -3 12 0 16 6 5 8 3 9 -6 4 -14 -9
-8 16 20 80 10 22 25 60 33 86 9 25 29 75 46 112 17 37 31 70 31 72 0 5 223
571 240 610 6 15 9 16 9 4 1 -9 7 -16 15 -16 13 0 13 3 0 21 -15 23 -18 36 -6
36 4 0 12 -12 18 -27 21 -51 39 -98 39 -103 1 -3 10 -23 20 -45 37 -82 45
-109 32 -117 -11 -7 -3 -12 14 -10 4 1 14 -20 24 -46 9 -26 21 -56 25 -67 5
-11 21 -49 36 -85 14 -36 35 -84 45 -107 10 -23 19 -48 19 -55 0 -8 4 -18 8
-23 5 -6 17 -32 27 -60 10 -27 26 -68 36 -91 10 -22 27 -65 39 -95 56 -144 67
-155 90 -92 11 32 14 35 20 18 5 -14 7 -7 7 22 0 23 7 48 15 56 7 8 27 45 43
83 16 38 32 71 35 74 4 3 9 13 13 22 6 16 36 18 379 20 324 3 373 5 373 18 0
8 5 18 10 22 6 5 4 8 -5 8 -9 0 -22 16 -29 35 -7 19 -17 35 -22 35 -5 0 -9 5
-9 11 0 14 -59 142 -69 149 -4 3 -18 26 -31 53 -13 26 -32 56 -42 67 -11 11
-16 25 -12 32 4 6 3 8 -4 4 -6 -3 -13 2 -16 12 -3 9 -19 32 -35 49 -40 44 -72
99 -63 107 4 4 3 6 -3 5 -5 -2 -46 35 -90 81 -86 90 -167 168 -209 201 -14 11
-23 25 -20 31 4 7 2 8 -4 4 -7 -4 -37 13 -69 39 -74 59 -85 68 -109 81 -10 6
-19 16 -19 22 0 6 -4 14 -9 19 -5 5 -6 3 -2 -4 11 -19 -8 -16 -37 7 -14 11
-28 20 -32 20 -4 0 -40 19 -79 43 -73 44 -301 147 -327 147 -12 0 -11 2 1 11
12 8 11 9 -6 5 -11 -4 -61 7 -110 23 -49 16 -132 37 -184 47 -52 10 -97 21
-100 24 -3 3 -18 7 -35 8 -16 1 -91 6 -165 12 -150 11 -234 11 -360 -1z"/>
<path d="M5343 3913 c9 -2 23 -2 30 0 6 3 -1 5 -18 5 -16 0 -22 -2 -12 -5z"/>
<path d="M6080 3900 c0 -5 5 -10 11 -10 5 0 7 5 4 10 -3 6 -8 10 -11 10 -2 0
-4 -4 -4 -10z"/>
<path d="M4478 3868 c5 -5 16 -8 23 -6 8 3 3 7 -10 11 -17 4 -21 3 -13 -5z"/>
<path d="M6160 3856 c0 -2 7 -7 16 -10 8 -3 12 -2 9 4 -6 10 -25 14 -25 6z"/>
<path d="M5724 3835 c36 -19 45 -19 20 0 -10 8 -26 14 -34 15 -8 0 -2 -7 14
-15z"/>
<path d="M3880 3829 c0 -5 5 -7 10 -4 6 3 10 8 10 11 0 2 -4 4 -10 4 -5 0 -10
-5 -10 -11z"/>
<path d="M4338 3823 c7 -3 16 -2 19 1 4 3 -2 6 -13 5 -11 0 -14 -3 -6 -6z"/>
<path d="M6230 3820 c0 -5 7 -10 15 -10 8 0 15 5 15 10 0 6 -7 10 -15 10 -8 0
-15 -4 -15 -10z"/>
<path d="M4209 3779 c14 -5 28 -6 32 -2 4 4 -6 9 -24 10 -30 1 -31 1 -8 -8z"/>
<path d="M3746 3754 c-11 -7 -18 -16 -15 -18 2 -2 13 2 23 10 11 7 18 16 15
18 -2 2 -13 -2 -23 -10z"/>
<path d="M5957 3759 c7 -7 15 -10 18 -7 3 3 -2 9 -12 12 -14 6 -15 5 -6 -5z"/>
<path d="M4020 3700 c0 -5 7 -7 15 -4 8 4 15 8 15 10 0 2 -7 4 -15 4 -8 0 -15
-4 -15 -10z"/>
<path d="M6115 3680 c3 -5 10 -10 16 -10 5 0 9 5 9 10 0 6 -7 10 -16 10 -8 0
-12 -4 -9 -10z"/>
<path d="M6191 3636 c2 -2 15 -9 29 -15 24 -11 24 -11 6 3 -16 13 -49 24 -35
12z"/>
<path d="M6567 3609 c7 -7 15 -10 18 -7 3 3 -2 9 -12 12 -14 6 -15 5 -6 -5z"/>
<path d="M6482 3444 c10 -10 20 -15 24 -12 3 4 -5 12 -18 18 -22 12 -22 12 -6
-6z"/>
<path d="M3605 3429 c-11 -16 -1 -19 13 -3 7 8 8 14 3 14 -5 0 -13 -5 -16 -11z"/>
<path d="M3545 3370 c-3 -5 -1 -10 4 -10 6 0 11 5 11 10 0 6 -2 10 -4 10 -3 0
-8 -4 -11 -10z"/>
<path d="M6883 3315 c0 -8 4 -12 9 -9 5 3 6 10 3 15 -9 13 -12 11 -12 -6z"/>
<path d="M6750 3200 c0 -5 5 -10 10 -10 6 0 10 5 10 10 0 6 -4 10 -10 10 -5 0
-10 -4 -10 -10z"/>
<path d="M6985 3200 c3 -5 8 -10 11 -10 2 0 4 5 4 10 0 6 -5 10 -11 10 -5 0
-7 -4 -4 -10z"/>
<path d="M3307 3143 c-4 -3 -7 -11 -7 -17 0 -6 5 -5 12 2 6 6 9 14 7 17 -3 3
-9 2 -12 -2z"/>
<path d="M5797 3113 c-4 -3 -7 -11 -7 -17 0 -6 5 -5 12 2 6 6 9 14 7 17 -3 3
-9 2 -12 -2z"/>
<path d="M7050 3110 c0 -5 5 -10 10 -10 6 0 10 5 10 10 0 6 -4 10 -10 10 -5 0
-10 -4 -10 -10z"/>
<path d="M6866 3067 c3 -10 9 -15 12 -12 3 3 0 11 -7 18 -10 9 -11 8 -5 -6z"/>
<path d="M4120 3051 c0 -6 4 -13 10 -16 6 -3 7 1 4 9 -7 18 -14 21 -14 7z"/>
<path d="M5870 3020 c0 -5 5 -10 10 -10 6 0 10 5 10 10 0 6 -4 10 -10 10 -5 0
-10 -4 -10 -10z"/>
<path d="M3160 2960 c0 -5 5 -10 10 -10 6 0 10 5 10 10 0 6 -4 10 -10 10 -5 0
-10 -4 -10 -10z"/>
<path d="M4170 2931 c0 -6 4 -13 10 -16 6 -3 7 1 4 9 -7 18 -14 21 -14 7z"/>
<path d="M3131 2913 c-1 -6 -4 -20 -7 -30 -5 -17 -5 -17 6 0 6 10 9 23 6 30
-3 9 -5 9 -5 0z"/>
<path d="M5940 2856 c0 -8 4 -17 9 -20 5 -4 7 3 4 14 -6 23 -13 26 -13 6z"/>
<path d="M7010 2850 c0 -5 5 -10 11 -10 5 0 7 5 4 10 -3 6 -8 10 -11 10 -2 0
-4 -4 -4 -10z"/>
<path d="M5081 2834 c0 -11 3 -14 6 -6 3 7 2 16 -1 19 -3 4 -6 -2 -5 -13z"/>
<path d="M5671 2794 c0 -11 3 -14 6 -6 3 7 2 16 -1 19 -3 4 -6 -2 -5 -13z"/>
<path d="M5655 2759 c-4 -6 -5 -12 -2 -15 2 -3 7 2 10 11 7 17 1 20 -8 4z"/>
<path d="M7080 2755 c0 -5 5 -17 10 -25 5 -8 10 -10 10 -5 0 6 -5 17 -10 25
-5 8 -10 11 -10 5z"/>
<path d="M4250 2719 c0 -11 4 -18 10 -14 5 3 7 12 3 20 -7 21 -13 19 -13 -6z"/>
<path d="M5635 2710 c-4 -12 -5 -24 -2 -27 3 -2 8 5 12 17 4 12 5 24 2 27 -3
2 -8 -5 -12 -17z"/>
<path d="M7307 2685 c9 -19 19 -33 21 -30 7 7 -19 65 -29 65 -5 0 -1 -16 8
-35z"/>
<path d="M4270 2688 c0 -9 5 -20 10 -23 13 -8 13 5 0 25 -8 13 -10 13 -10 -2z"/>
<path d="M3877 2683 c-4 -3 -7 -11 -7 -17 0 -6 5 -5 12 2 6 6 9 14 7 17 -3 3
-9 2 -12 -2z"/>
<path d="M6016 2677 c3 -10 9 -15 12 -12 3 3 0 11 -7 18 -10 9 -11 8 -5 -6z"/>
<path d="M2991 2664 c0 -11 3 -14 6 -6 3 7 2 16 -1 19 -3 4 -6 -2 -5 -13z"/>
<path d="M5151 2644 c0 -11 3 -14 6 -6 3 7 2 16 -1 19 -3 4 -6 -2 -5 -13z"/>
<path d="M4136 2585 c-9 -26 -7 -32 5 -12 6 10 9 21 6 23 -2 3 -7 -2 -11 -11z"/>
<path d="M5771 2564 c0 -11 3 -14 6 -6 3 7 2 16 -1 19 -3 4 -6 -2 -5 -13z"/>
<path d="M3816 2545 c-9 -26 -7 -32 5 -12 6 10 9 21 6 23 -2 3 -7 -2 -11 -11z"/>
<path d="M4326 2523 c-6 -14 -5 -15 5 -6 7 7 10 15 7 18 -3 3 -9 -2 -12 -12z"/>
<path d="M5890 2519 c0 -5 5 -7 10 -4 6 3 10 8 10 11 0 2 -4 4 -10 4 -5 0 -10
-5 -10 -11z"/>
<path d="M7360 2520 c0 -5 5 -10 11 -10 5 0 7 5 4 10 -3 6 -8 10 -11 10 -2 0
-4 -4 -4 -10z"/>
<path d="M5026 2485 c4 -8 8 -15 10 -15 2 0 4 7 4 15 0 8 -4 15 -10 15 -5 0
-7 -7 -4 -15z"/>
<path d="M6445 2460 c-3 -5 -1 -10 4 -10 6 0 11 5 11 10 0 6 -2 10 -4 10 -3 0
-8 -4 -11 -10z"/>
<path d="M7400 2450 c0 -5 5 -10 11 -10 5 0 7 5 4 10 -3 6 -8 10 -11 10 -2 0
-4 -4 -4 -10z"/>
<path d="M3960 2429 c0 -5 5 -7 10 -4 6 3 10 8 10 11 0 2 -4 4 -10 4 -5 0 -10
-5 -10 -11z"/>
<path d="M4816 2365 c-9 -26 -7 -32 5 -12 6 10 9 21 6 23 -2 3 -7 -2 -11 -11z"/>
<path d="M5970 2314 c0 -8 5 -12 10 -9 6 4 8 11 5 16 -9 14 -15 11 -15 -7z"/>
<path d="M6161 2315 c0 -5 6 -21 14 -35 8 -14 14 -20 14 -15 0 6 -6 21 -14 35
-8 14 -14 21 -14 15z"/>
<path d="M2832 2240 c0 -14 2 -19 5 -12 2 6 2 18 0 25 -3 6 -5 1 -5 -13z"/>
<path d="M4761 2233 c0 -6 -4 -20 -7 -30 -5 -14 -4 -15 5 -7 7 7 11 20 8 30
-3 11 -5 14 -6 7z"/>
<path d="M6197 2219 c4 -13 8 -18 11 -10 2 7 -1 18 -6 23 -8 8 -9 4 -5 -13z"/>
<path d="M6511 2203 c-10 -26 -10 -27 4 -9 8 11 15 23 15 28 0 15 -7 8 -19
-19z"/>
<path d="M7482 2195 c0 -16 2 -22 5 -12 2 9 2 23 0 30 -3 6 -5 -1 -5 -18z"/>
<path d="M4737 2173 c-4 -3 -7 -13 -7 -22 1 -13 3 -13 11 2 11 19 8 33 -4 20z"/>
<path d="M7311 2114 c0 -11 3 -14 6 -6 3 7 2 16 -1 19 -3 4 -6 -2 -5 -13z"/>
<path d="M2603 2025 c0 -22 2 -30 4 -17 2 12 2 30 0 40 -3 9 -5 -1 -4 -23z"/>
<path d="M7332 1990 c0 -14 2 -19 5 -12 2 6 2 18 0 25 -3 6 -5 1 -5 -13z"/>
<path d="M5527 1971 c-4 -17 -3 -21 5 -13 5 5 8 16 6 23 -3 8 -7 3 -11 -10z"/>
<path d="M7531 1974 c0 -11 3 -14 6 -6 3 7 2 16 -1 19 -3 4 -6 -2 -5 -13z"/>
<path d="M4651 1963 c-1 -6 -4 -20 -7 -30 -5 -17 -5 -17 6 0 6 10 9 23 6 30
-3 9 -5 9 -5 0z"/>
<path d="M6401 1954 c0 -11 3 -14 6 -6 3 7 2 16 -1 19 -3 4 -6 -2 -5 -13z"/>
<path d="M7344 1955 c-3 -8 -4 -20 -2 -27 3 -7 7 -1 10 15 6 29 1 36 -8 12z"/>
<path d="M7530 1904 c0 -10 5 -26 10 -34 8 -11 9 -7 4 15 -8 37 -14 45 -14 19z"/>
<path d="M2762 1860 c0 -14 2 -19 5 -12 2 6 2 18 0 25 -3 6 -5 1 -5 -13z"/>
<path d="M7352 1860 c0 -14 2 -19 5 -12 2 6 2 18 0 25 -3 6 -5 1 -5 -13z"/>
<path d="M5476 1835 c-3 -8 -1 -15 4 -15 6 0 10 7 10 15 0 8 -2 15 -4 15 -2 0
-6 -7 -10 -15z"/>
<path d="M4596 1814 c-4 -14 -5 -29 -2 -31 3 -3 8 7 12 21 3 15 4 29 1 32 -2
3 -8 -7 -11 -22z"/>
<path d="M7551 1814 c0 -11 3 -14 6 -6 3 7 2 16 -1 19 -3 4 -6 -2 -5 -13z"/>
<path d="M5310 1770 c0 -5 5 -10 10 -10 6 0 10 5 10 10 0 6 -4 10 -10 10 -5 0
-10 -4 -10 -10z"/>
<path d="M5330 1731 c0 -6 4 -13 10 -16 6 -3 7 1 4 9 -7 18 -14 21 -14 7z"/>
<path d="M6212 1700 c7 -10 14 -18 15 -16 6 6 -9 36 -18 36 -5 0 -4 -9 3 -20z"/>
<path d="M6285 1699 c-4 -6 -5 -12 -2 -15 2 -3 7 2 10 11 7 17 1 20 -8 4z"/>
<path d="M2527 1663 c-12 -12 -7 -22 8 -17 8 4 15 10 15 15 0 11 -14 12 -23 2z"/>
<path d="M5380 1610 c0 -5 5 -10 10 -10 6 0 10 5 10 10 0 6 -4 10 -10 10 -5 0
-10 -4 -10 -10z"/>
<path d="M7642 1594 c10 -10 20 -16 22 -13 3 3 -5 11 -17 18 -21 13 -21 12 -5
-5z"/>
<path d="M2440 1570 c-9 -6 -10 -10 -3 -10 6 0 15 5 18 10 8 12 4 12 -15 0z"/>
<path d="M2650 1528 c-12 -22 -12 -22 6 -6 10 10 15 20 12 24 -4 3 -12 -5 -18
-18z"/>
<path d="M7451 1537 c2 -1 13 -9 24 -17 19 -14 19 -14 6 3 -7 9 -18 17 -24 17
-6 0 -8 -1 -6 -3z"/>
<path d="M9448 1523 c7 -3 16 -2 19 1 4 3 -2 6 -13 5 -11 0 -14 -3 -6 -6z"/>
<path d="M9100 1505 c-14 -8 -20 -14 -14 -15 5 0 19 7 30 15 24 18 16 19 -16
0z"/>
<path d="M9530 1500 c8 -5 20 -10 25 -10 6 0 3 5 -5 10 -8 5 -19 10 -25 10 -5
0 -3 -5 5 -10z"/>
<path d="M1032 1486 c7 -8 15 -12 17 -11 5 6 -10 25 -20 25 -5 0 -4 -6 3 -14z"/>
<path d="M9020 1455 c-11 -13 -10 -14 4 -9 9 3 16 10 16 15 0 13 -6 11 -20 -6z"/>
<path d="M9000 1420 c0 -5 5 -10 11 -10 5 0 7 5 4 10 -3 6 -8 10 -11 10 -2 0
-4 -4 -4 -10z"/>
<path d="M800 1370 c0 -5 5 -10 11 -10 5 0 7 5 4 10 -3 6 -8 10 -11 10 -2 0
-4 -4 -4 -10z"/>
<path d="M1160 1371 c0 -5 5 -13 10 -16 6 -3 10 -2 10 4 0 5 -4 13 -10 16 -5
3 -10 2 -10 -4z"/>
<path d="M9228 1363 c7 -3 16 -2 19 1 4 3 -2 6 -13 5 -11 0 -14 -3 -6 -6z"/>
<path d="M9298 1363 c12 -2 32 -2 45 0 12 2 2 4 -23 4 -25 0 -35 -2 -22 -4z"/>
<path d="M733 1348 c7 -4 -1 -8 -20 -8 -17 0 -34 -4 -38 -10 -3 -5 -13 -6 -23
-3 -9 3 -14 3 -10 -2 4 -4 -9 -21 -29 -37 -20 -16 -41 -37 -47 -47 -51 -87
-50 -84 -49 -176 2 -128 4 -149 14 -133 7 10 9 8 9 -6 0 -30 98 -114 154 -132
85 -29 213 -10 273 40 54 44 87 100 103 174 6 26 13 58 15 72 4 16 3 20 -3 12
-6 -9 -11 1 -15 33 -9 66 -64 145 -126 183 -28 18 -61 32 -74 33 -18 0 -19 2
-5 7 9 4 -18 7 -62 7 -43 0 -74 -3 -67 -7z"/>
<path d="M9225 1334 c-22 -9 -51 -16 -65 -16 -14 0 -19 -3 -12 -5 17 -6 -44
-73 -62 -69 -6 2 -8 1 -4 -1 4 -3 -2 -23 -14 -46 -14 -28 -23 -67 -26 -118 -4
-66 -1 -84 20 -131 36 -79 80 -124 144 -148 138 -51 279 -7 355 112 29 44 34
63 37 123 5 89 -9 142 -53 200 -40 52 -43 60 -15 45 14 -7 20 -7 20 0 0 9 -21
15 -43 11 -4 -1 -26 11 -49 25 -53 34 -172 43 -233 18z"/>
<path d="M1180 1326 c0 -2 9 -6 20 -9 11 -3 18 -1 14 4 -5 9 -34 13 -34 5z"/>
<path d="M595 1310 c-3 -6 1 -7 9 -4 18 7 21 14 7 14 -6 0 -13 -4 -16 -10z"/>
<path d="M2140 1280 c-8 -5 -11 -12 -7 -16 4 -4 13 -2 19 4 15 15 7 24 -12 12z"/>
<path d="M9761 1264 c0 -11 3 -14 6 -6 3 7 2 16 -1 19 -3 4 -6 -2 -5 -13z"/>
<path d="M2326 1214 c-5 -14 -4 -15 9 -4 17 14 19 20 6 20 -5 0 -12 -7 -15
-16z"/>
<path d="M501 1179 c-6 -18 -9 -34 -7 -36 2 -2 9 10 15 28 6 18 9 34 7 36 -2
2 -9 -10 -15 -28z"/>
<path d="M1071 1173 c-1 -12 4 -25 9 -28 12 -7 12 2 0 30 -8 19 -9 19 -9 -2z"/>
<path d="M1378 1173 c12 -2 32 -2 45 0 12 2 2 4 -23 4 -25 0 -35 -2 -22 -4z"/>
<path d="M8258 1173 c12 -2 32 -2 45 0 12 2 2 4 -23 4 -25 0 -35 -2 -22 -4z"/>
<path d="M8658 1173 c12 -2 32 -2 45 0 12 2 2 4 -23 4 -25 0 -35 -2 -22 -4z"/>
<path d="M9771 1144 c0 -11 3 -14 6 -6 3 7 2 16 -1 19 -3 4 -6 -2 -5 -13z"/>
<path d="M9802 1105 c0 -16 2 -22 5 -12 2 9 2 23 0 30 -3 6 -5 -1 -5 -18z"/>
<path d="M2165 1050 c-3 -5 -1 -10 4 -10 6 0 11 5 11 10 0 6 -2 10 -4 10 -3 0
-8 -4 -11 -10z"/>
<path d="M9773 1005 c0 -22 2 -30 4 -17 2 12 2 30 0 40 -3 9 -5 -1 -4 -23z"/>
<path d="M1478 983 c23 -2 61 -2 85 0 23 2 4 4 -43 4 -47 0 -66 -2 -42 -4z"/>
<path d="M1958 983 c23 -2 61 -2 85 0 23 2 4 4 -43 4 -47 0 -66 -2 -42 -4z"/>
<path d="M8018 983 c12 -2 32 -2 45 0 12 2 2 4 -23 4 -25 0 -35 -2 -22 -4z"/>
<path d="M8258 983 c12 -2 32 -2 45 0 12 2 2 4 -23 4 -25 0 -35 -2 -22 -4z"/>
<path d="M1082 960 c0 -14 2 -19 5 -12 2 6 2 18 0 25 -3 6 -5 1 -5 -13z"/>
<path d="M1245 909 c-4 -6 -5 -12 -2 -15 2 -3 7 2 10 11 7 17 1 20 -8 4z"/>
<path d="M9776 905 c-3 -9 -6 -22 -5 -28 0 -7 5 -1 10 12 5 13 8 26 5 28 -2 2
-6 -3 -10 -12z"/>
<path d="M9070 881 c0 -6 4 -13 10 -16 6 -3 7 1 4 9 -7 18 -14 21 -14 7z"/>
<path d="M375 810 c3 -5 8 -10 11 -10 2 0 4 5 4 10 0 6 -5 10 -11 10 -5 0 -7
-4 -4 -10z"/>
<path d="M610 800 c0 -5 7 -10 16 -10 8 0 12 5 9 10 -3 6 -10 10 -16 10 -5 0
-9 -4 -9 -10z"/>
<path d="M9147 799 c7 -7 15 -10 18 -7 3 3 -2 9 -12 12 -14 6 -15 5 -6 -5z"/>
<path d="M910 780 c-12 -8 -10 -10 8 -10 13 0 20 4 17 10 -7 12 -6 12 -25 0z"/>
<path d="M678 773 c7 -3 16 -2 19 1 4 3 -2 6 -13 5 -11 0 -14 -3 -6 -6z"/>
<path d="M9390 770 c-20 -6 -21 -8 -5 -8 11 0 29 3 40 8 25 11 -1 11 -35 0z"/>
<path d="M9238 763 c7 -3 16 -2 19 1 4 3 -2 6 -13 5 -11 0 -14 -3 -6 -6z"/>
<path d="M9298 763 c12 -2 32 -2 45 0 12 2 2 4 -23 4 -25 0 -35 -2 -22 -4z"/>
<path d="M9660 719 c0 -5 5 -7 10 -4 6 3 10 8 10 11 0 2 -4 4 -10 4 -5 0 -10
-5 -10 -11z"/>
<path d="M531 651 c13 -11 26 -17 28 -15 5 5 -30 33 -43 34 -4 0 2 -9 15 -19z"/>
<path d="M9560 650 c-9 -6 -10 -10 -3 -10 6 0 15 5 18 10 8 12 4 12 -15 0z"/>
<path d="M638 593 c7 -3 16 -2 19 1 4 3 -2 6 -13 5 -11 0 -14 -3 -6 -6z"/>
<path d="M928 593 c7 -3 16 -2 19 1 4 3 -2 6 -13 5 -11 0 -14 -3 -6 -6z"/>
<path d="M888 583 c7 -3 16 -2 19 1 4 3 -2 6 -13 5 -11 0 -14 -3 -6 -6z"/>
<path d="M9213 583 c9 -2 23 -2 30 0 6 3 -1 5 -18 5 -16 0 -22 -2 -12 -5z"/>
<path d="M9403 583 c9 -2 23 -2 30 0 6 3 -1 5 -18 5 -16 0 -22 -2 -12 -5z"/>
<path d="M9298 573 c12 -2 32 -2 45 0 12 2 2 4 -23 4 -25 0 -35 -2 -22 -4z"/>
</g>
</svg>
